# xmcd
#
# Track frame offsets: 
#        150
#        13069
#        23931
#        37673
#        49904
#        59919
#        71154
#        82498
#        93524
#        105976
#
# Disc length: 1590 seconds
#
# Revision: 0
# Processed by: cddbd v1.5.2PL0 Copyright (c) Steve Scherf et al.
# Submitted via: ExactAudioCopy v0.95b4
#
DISCID=8906340a
DTITLE=Willie Nelson - 10 Great Songs - Willie Nelson
DYEAR=2012
DGENRE=Country
TTITLE0=Crazy
TTITLE1=Hello Walls
TTITLE2=Funny How Time Slips Away
TTITLE3=Willingly (With Shirley Collie)
TTITLE4=Touch Me
TTITLE5=You Took My Happy Away
TTITLE6=Night Life
TTITLE7=Half A Man
TTITLE8=Mr. Record Man
TTITLE9=The Last Letter
EXTD=
EXTT0=
EXTT1=
EXTT2=
EXTT3=
EXTT4=
EXTT5=
EXTT6=
EXTT7=
EXTT8=
EXTT9=
PLAYORDER=
